<svg width="15" height="14" viewBox="0 0 15 14" fill="none" xmlns="http://www.w3.org/2000/svg">
<g clip-path="url(#clip0)">
<path d="M8.49999 0H3.50001C2.81074 0 2.25 0.523359 2.25 1.16668V9.56668C2.25 10.21 2.81074 10.7334 3.50001 10.7334H8.00001V10.2667H3.50001C3.08651 10.2667 2.75001 9.95261 2.75001 9.56668V1.16668C2.75001 0.780746 3.08651 0.466676 3.50001 0.466676H8.50002C8.91352 0.466676 9.25002 0.780746 9.25002 1.16668V7.93335H9.75V1.16668C9.75 0.523359 9.18926 0 8.49999 0Z" fill="#2C2C2C" fill-opacity="0.81"/>
<path d="M12.1478 6.21507L9.69526 3.35439L9.3045 3.64607L11.757 6.5065C12.0753 6.8775 12.2502 7.34371 12.25 7.819V13.5333H8.59253C7.30103 13.5333 6.25004 12.5526 6.25004 11.347V10.5H5.75003V11.347C5.75003 12.8098 7.02529 14 8.59253 14H12.5C12.6383 14 12.75 13.8957 12.75 13.7667V7.81925C12.7503 7.23871 12.5365 6.6689 12.1478 6.21507Z" fill="#2C2C2C" fill-opacity="0.81"/>
<path d="M6.49901 5.50271C6.6745 5.50738 6.83777 5.5755 6.95801 5.6945L10.3178 9.0265L10.682 8.7066L7.32176 5.37436C7.1095 5.16458 6.82225 5.04443 6.51325 5.03625C6.20101 5.02646 5.91026 5.13261 5.68825 5.32839C5.6855 5.33096 5.66549 5.34868 5.663 5.35125C5.23576 5.75118 5.20699 6.37886 5.59676 6.81239L7.75002 9.18539V9.90732C7.74976 11.1967 8.61853 12.3664 9.91228 12.8186L10.0878 12.3816C8.98825 11.9973 8.24977 11.003 8.25 9.90732V9.1C8.25 9.04493 8.22899 8.99125 8.19076 8.94903L5.97902 6.51139C5.75777 6.26546 5.77403 5.90822 6.02903 5.67C6.1565 5.55753 6.323 5.50175 6.49901 5.50271Z" fill="#2C2C2C" fill-opacity="0.81"/>
<path d="M8.25003 0.466675H7.75002V6.3H8.25003V0.466675Z" fill="#2C2C2C" fill-opacity="0.81"/>
<path d="M7 7.7H6.49999V10.5H7V7.7Z" fill="#2C2C2C" fill-opacity="0.81"/>
<path d="M7 0.233322H6.49999V5.36665H7V0.233322Z" fill="#2C2C2C" fill-opacity="0.81"/>
<path d="M4.00002 1.16669H3.50002V4.2H4.00002V1.16669Z" fill="#2C2C2C" fill-opacity="0.81"/>
<path d="M5.24998 1.16669H4.74997V3.03336H5.24998V1.16669Z" fill="#2C2C2C" fill-opacity="0.81"/>
<path d="M5.25 7.7H3.75001C3.61202 7.7 3.50002 7.80429 3.50002 7.93332V9.33332C3.50002 9.46236 3.61202 9.56665 3.75001 9.56665H5.25C5.38799 9.56665 5.49999 9.46236 5.49999 9.33332V7.93332C5.49999 7.80429 5.38799 7.7 5.25 7.7ZM5.00001 9.1H4.00003V8.16667H5.00001V9.1Z" fill="#2C2C2C" fill-opacity="0.81"/>
</g>
<defs>
<clipPath id="clip0">
<rect width="15" height="14" fill="white"/>
</clipPath>
</defs>
</svg>
