<svg width="15" height="15" viewBox="0 0 15 15" fill="none" xmlns="http://www.w3.org/2000/svg">
<g clip-path="url(#clip0)">
<path d="M4.36302 6.36633H2.10592V6.8183H4.36302V6.36633Z" fill="#2C2C2C" fill-opacity="0.81"/>
<path d="M5.49295 7.72224H2.10592V8.17421H5.49295V7.72224Z" fill="#2C2C2C" fill-opacity="0.81"/>
<path d="M10.2359 9.07816H2.10592V9.53013H10.2359V9.07816Z" fill="#2C2C2C" fill-opacity="0.81"/>
<path d="M3.46183 10.4313H2.10592V10.8833H3.46183V10.4313Z" fill="#2C2C2C" fill-opacity="0.81"/>
<path d="M5.71894 10.4313H4.36302V10.8833H5.71894V10.4313Z" fill="#2C2C2C" fill-opacity="0.81"/>
<path d="M7.9788 10.4313H6.62288V10.8833H7.9788V10.4313Z" fill="#2C2C2C" fill-opacity="0.81"/>
<path d="M10.0099 6.14034C9.84456 6.14034 9.69298 6.18719 9.5607 6.26436C9.4229 6.18443 9.26857 6.14034 9.10597 6.14034C8.60715 6.14034 8.20203 6.54546 8.20203 7.04428C8.20203 7.54311 8.60715 7.94823 9.10597 7.94823C9.26857 7.94823 9.4229 7.90413 9.5607 7.82421C9.69298 7.90138 9.84456 7.94823 10.0099 7.94823C10.5087 7.94823 10.9139 7.54311 10.9139 7.04428C10.9139 6.54546 10.5087 6.14034 10.0099 6.14034ZM9.22172 7.47972C9.18314 7.49074 9.14455 7.49626 9.10597 7.49626C8.85794 7.49626 8.654 7.29232 8.654 7.04428C8.654 6.79625 8.85794 6.59231 9.10597 6.59231C9.14455 6.59231 9.18589 6.60058 9.22172 6.60885C9.15007 6.73838 9.10597 6.88444 9.10597 7.04428C9.10597 7.20413 9.15007 7.35019 9.22172 7.47972ZM10.0099 7.49626C9.76188 7.49626 9.55794 7.29232 9.55794 7.04428C9.55794 6.79625 9.76188 6.59231 10.0099 6.59231C10.2579 6.59231 10.4619 6.79625 10.4619 7.04428C10.4619 7.29232 10.2579 7.49626 10.0099 7.49626Z" fill="#2C2C2C" fill-opacity="0.81"/>
<path d="M14.2788 5.09585L4.80396 2.10291C4.73782 2.08087 4.20868 1.90724 3.95514 2.54386L3.17521 5.01042H1.42796C1.05315 5.01317 0.75 5.31632 0.75 5.68837V11.5613C0.75 11.9361 1.05315 12.2392 1.42796 12.2392H11.3658C11.6028 12.2392 11.8095 12.118 11.9308 11.9333C11.9308 11.9333 12.2367 12.0187 12.3056 12.0187C12.6032 12.0187 12.8623 11.8286 12.9505 11.5447L14.7198 5.94468C14.7749 5.77381 14.8135 5.23916 14.2788 5.09585ZM4.11222 3.54151L8.76698 5.01042H5.76578L3.83939 4.40136L4.11222 3.54151ZM3.70435 4.83404L4.26931 5.01317H3.64923L3.70435 4.83404ZM11.5918 11.5613H11.589C11.589 11.6853 11.4871 11.7872 11.3631 11.7872H1.42796C1.30394 11.7872 1.20197 11.6853 1.20197 11.5613V5.68837C1.20197 5.56436 1.30394 5.46239 1.42796 5.46239H11.3658C11.4898 5.46239 11.5918 5.56436 11.5918 5.68837V11.5613ZM12.5205 11.4097C12.4847 11.5254 12.3524 11.5943 12.2367 11.5557L12.041 11.4951V7.4687L13.6091 7.96477L12.5205 11.4097ZM13.7442 7.53209L12.041 6.99468V6.04665L14.017 6.66949L13.7442 7.53209ZM14.2898 5.80964L14.1548 6.23956L12.03 5.56987C11.9721 5.25294 11.6965 5.01317 11.3658 5.01317H10.2662L4.24726 3.11158L4.3823 2.68166C4.41813 2.56591 4.54766 2.49701 4.66616 2.53559L14.141 5.52578C14.3312 5.57538 14.3064 5.75176 14.2898 5.80964Z" fill="#2C2C2C" fill-opacity="0.81"/>
</g>
<defs>
<clipPath id="clip0">
<rect width="14" height="14" fill="white" transform="translate(0.75 0.152039)"/>
</clipPath>
</defs>
</svg>
