<svg width="15" height="15" viewBox="0 0 15 15" fill="none" xmlns="http://www.w3.org/2000/svg">
<g clip-path="url(#clip0)">
<path d="M14.1504 5.70309C14.1503 5.60471 14.105 5.51191 14.0271 5.45172C14.0268 5.45142 13.2492 4.8488 12.2413 4.05745V2.83945C12.2413 2.13753 11.6705 1.56671 10.9686 1.56671H9.11543C8.66205 1.19644 8.2686 0.869091 8.00583 0.636092C7.7532 0.412489 7.45189 0.294036 7.15067 0.294006C6.84916 0.293977 6.54773 0.412609 6.29531 0.636122C6.03254 0.86912 5.63915 1.19647 5.18544 1.56674H3.33225C2.6303 1.56674 2.05951 2.13753 2.05951 2.83945V4.05742C1.05145 4.84871 0.274095 5.45142 0.273766 5.45172C0.195852 5.51191 0.15057 5.60471 0.150481 5.70309H0.150421V13.0213C0.150421 13.7232 0.72121 14.294 1.42316 14.294H12.8777C13.5796 14.294 14.1505 13.7232 14.1505 13.0213V5.70309H14.1504ZM12.2413 4.86613C12.6864 5.21457 13.0641 5.50905 13.313 5.70279C13.0645 5.89576 12.6861 6.19006 12.2413 6.53787V4.86613ZM6.71728 1.11244C6.9901 0.870701 7.31044 0.870373 7.58389 1.11274C7.7271 1.23939 7.90769 1.39332 8.11515 1.56671H6.18596C6.39345 1.39332 6.57407 1.23928 6.71728 1.11244ZM2.69587 2.83945C2.69587 2.48866 2.98143 2.2031 3.33222 2.2031H10.9686C11.3194 2.2031 11.605 2.48866 11.605 2.83945V7.03656C10.1807 8.1552 8.39406 9.57616 7.58389 10.2934C7.50714 10.3615 7.3471 10.4758 7.14047 10.4758C6.98945 10.4758 6.84373 10.4146 6.70702 10.2934C5.8919 9.57169 4.1142 8.15535 2.69587 7.03943V2.83945ZM2.05951 4.86613V6.5399C1.61443 6.19131 1.23607 5.89639 0.987498 5.70312C1.23625 5.50932 1.61416 5.21481 2.05951 4.86613ZM13.5141 13.0213C13.5141 13.3721 13.2285 13.6577 12.8777 13.6577H1.42316C1.07236 13.6577 0.786805 13.3721 0.786805 13.0213V6.35275C2.11392 7.38575 5.18431 9.79496 6.28508 10.7701C6.53801 10.9938 6.83383 11.1122 7.1405 11.1122C7.44936 11.1122 7.75666 10.9907 8.00586 10.7701C9.14982 9.75708 12.2811 7.31081 13.5141 6.35254V13.0213Z" fill="#2C2C2C" fill-opacity="0.81"/>
<path d="M6.19589 5.38493C6.37162 5.38493 6.51408 5.24247 6.51408 5.06673C6.51408 4.891 6.37162 4.74854 6.19589 4.74854C6.02016 4.74854 5.8777 4.891 5.8777 5.06673C5.8777 5.24247 6.02016 5.38493 6.19589 5.38493Z" fill="#2C2C2C" fill-opacity="0.81"/>
<path d="M8.10498 5.38493C8.28071 5.38493 8.42317 5.24247 8.42317 5.06673C8.42317 4.891 8.28071 4.74854 8.10498 4.74854C7.92925 4.74854 7.78679 4.891 7.78679 5.06673C7.78679 5.24247 7.92925 5.38493 8.10498 5.38493Z" fill="#2C2C2C" fill-opacity="0.81"/>
<path d="M8.14038 7.12188C8.19661 7.23093 8.30788 7.29402 8.42346 7.29402C8.47131 7.29402 8.51978 7.28314 8.56545 7.26047C8.72268 7.18187 8.78637 6.99075 8.70777 6.83352C8.6913 6.80029 8.28861 6.02129 7.15043 6.02129C6.01226 6.02129 5.60956 6.80029 5.59309 6.83352C5.51542 6.98887 5.57788 7.17593 5.73231 7.25578C5.88674 7.33656 6.07752 7.27568 6.16018 7.12218C6.17044 7.10323 6.41901 6.65764 7.15046 6.65764C7.87627 6.65764 8.12672 7.0967 8.14038 7.12188Z" fill="#2C2C2C" fill-opacity="0.81"/>
</g>
<defs>
<clipPath id="clip0">
<rect width="14" height="14" fill="white" transform="translate(0.150421 0.294006)"/>
</clipPath>
</defs>
</svg>
