<svg width="45" height="35" viewBox="0 0 45 35" fill="none" xmlns="http://www.w3.org/2000/svg">
<g clip-path="url(#clip0)">
<path d="M33.2459 6.33072H2.55103C1.58627 6.33072 0.796997 7.11999 0.796997 8.08469V27.3787C0.796997 28.3433 1.58627 29.1327 2.55103 29.1327H33.246C34.2106 29.1327 35 28.3435 35 27.3787V8.08469C35 7.11999 34.2107 6.33072 33.2459 6.33072ZM32.5877 7.64613L18.9075 17.9072C18.6615 18.0943 18.2839 18.2114 17.8984 18.2097C17.513 18.2114 17.1355 18.0943 16.8894 17.9072L3.20917 7.64613H32.5877ZM25.2802 18.5842L32.7347 27.7927C32.7422 27.802 32.7513 27.809 32.7593 27.8173H3.03769C3.04557 27.8086 3.05479 27.802 3.06228 27.7927L10.5168 18.5842C10.7452 18.3018 10.7019 17.8878 10.419 17.6589C10.1366 17.4305 9.72263 17.4738 9.49417 17.7562L2.11247 26.8749V8.46834L16.1006 18.9594C16.6264 19.351 17.2661 19.5234 17.8983 19.5251C18.5298 19.5238 19.17 19.3514 19.6961 18.9594L33.6842 8.46834V26.8747L26.3027 17.7562C26.0743 17.4739 25.6599 17.4304 25.3779 17.6589C25.0951 17.8873 25.0516 18.3018 25.2802 18.5842Z" fill="#F5F7F9"/>
</g>
<circle cx="35" cy="10.4322" r="9.6975" fill="#3B4B4B"/>
<circle cx="35" cy="10.4322" r="9.1975" stroke="#D52323" stroke-opacity="0.96"/>
<circle cx="35" cy="10.4322" r="7.72712" fill="#D52323" fill-opacity="0.96"/>
<path d="M37.3643 11.8844H38.6016V13.2174H37.3643V15.4322H35.7031V13.2174H31.4033L31.3555 12.2057L35.6484 5.4791H37.3643V11.8844ZM33.0986 11.8844H35.7031V7.72812L35.5801 7.94687L33.0986 11.8844Z" fill="#F5F7F9"/>
<defs>
<clipPath id="clip0">
<rect width="34.203" height="34.203" fill="white" transform="translate(0.796997 0.630249)"/>
</clipPath>
</defs>
</svg>
