<svg width="14" height="15" viewBox="0 0 14 15" fill="none" xmlns="http://www.w3.org/2000/svg">
<g clip-path="url(#clip0)">
<path d="M13.65 6.1111C13.6496 6.11078 13.6492 6.11035 13.6489 6.11003L7.93802 0.399339C7.6946 0.155808 7.37096 0.021759 7.02671 0.021759C6.68245 0.021759 6.35881 0.155808 6.11528 0.399339L0.40737 6.10714C0.405448 6.10907 0.403418 6.1111 0.401603 6.11302C-0.0982763 6.61578 -0.0974218 7.4315 0.404059 7.93298C0.63317 8.1622 0.935661 8.29486 1.25919 8.30886C1.27244 8.31014 1.28568 8.31078 1.29903 8.31078H1.52654V12.5134C1.52654 13.3451 2.2033 14.0218 3.03505 14.0218H5.26933C5.49588 14.0218 5.67949 13.8381 5.67949 13.6116V10.3167C5.67949 9.9372 5.98828 9.62851 6.36779 9.62851H7.68563C8.06513 9.62851 8.37382 9.9372 8.37382 10.3167V13.6116C8.37382 13.8381 8.55743 14.0218 8.78397 14.0218H11.0183C11.8501 14.0218 12.5268 13.3451 12.5268 12.5134V8.31078H12.7378C13.082 8.31078 13.4056 8.17673 13.6492 7.93309C14.1513 7.43086 14.1515 6.61365 13.65 6.1111ZM13.0692 7.3531C12.9806 7.44165 12.8629 7.49046 12.7378 7.49046H12.1166C11.8901 7.49046 11.7064 7.67407 11.7064 7.90062V12.5134C11.7064 12.8928 11.3978 13.2015 11.0183 13.2015H9.19413V10.3167C9.19413 9.48496 8.51748 8.8082 7.68563 8.8082H6.36779C5.53594 8.8082 4.85918 9.48496 4.85918 10.3167V13.2015H3.03505C2.65565 13.2015 2.34686 12.8928 2.34686 12.5134V7.90062C2.34686 7.67407 2.16325 7.49046 1.9367 7.49046H1.32616C1.31976 7.49004 1.31345 7.48972 1.30694 7.48961C1.18475 7.48747 1.07014 7.43898 0.984261 7.353C0.801613 7.17035 0.801613 6.87309 0.984261 6.69034C0.984367 6.69034 0.984367 6.69023 0.984474 6.69012L0.984795 6.6898L6.69548 0.979326C6.78392 0.890779 6.90152 0.842073 7.02671 0.842073C7.15178 0.842073 7.26938 0.890779 7.35793 0.979326L13.0673 6.68863C13.0682 6.68948 13.0692 6.69034 13.07 6.69119C13.2517 6.87416 13.2514 7.17078 13.0692 7.3531Z" fill="white"/>
</g>
<defs>
<clipPath id="clip0">
<rect width="14" height="14" fill="white" transform="translate(0 0.0491028)"/>
</clipPath>
</defs>
</svg>
