<svg width="18" height="10" viewBox="0 0 18 10" fill="none" xmlns="http://www.w3.org/2000/svg">
<path d="M1.34655 9.36042C1.1475 9.55181 0.83098 9.54561 0.639583 9.34655C0.448187 9.1475 0.454393 8.83098 0.653446 8.63958L1.34655 9.36042ZM7.4 2.84615L7.05345 2.48574C7.23972 2.30663 7.53179 2.29897 7.72719 2.46807L7.4 2.84615ZM11.6667 6.53846L12.0268 6.88528C11.8424 7.07675 11.5405 7.09049 11.3395 6.91655L11.6667 6.53846ZM16.9906 0.500089C17.2667 0.49488 17.4947 0.714474 17.4999 0.990568L17.5848 5.48977C17.59 5.76586 17.3704 5.9939 17.0943 5.99911C16.8182 6.00432 16.5902 5.78472 16.585 5.50863L16.5095 1.50934L12.5102 1.5848C12.2341 1.59001 12.0061 1.37042 12.0009 1.09432C11.9957 0.81823 12.2153 0.590189 12.4914 0.58498L16.9906 0.500089ZM0.653446 8.63958L7.05345 2.48574L7.74655 3.20657L1.34655 9.36042L0.653446 8.63958ZM7.72719 2.46807L11.9939 6.16038L11.3395 6.91655L7.07281 3.22424L7.72719 2.46807ZM11.3065 6.19164L16.6398 0.653179L17.3602 1.34682L12.0268 6.88528L11.3065 6.19164Z" fill="#333333"/>
</svg>
