<svg width="18" height="10" viewBox="0 0 18 10" fill="none" xmlns="http://www.w3.org/2000/svg">
<path d="M1.34655 0.639583C1.1475 0.448187 0.83098 0.454393 0.639583 0.653446C0.448187 0.852498 0.454393 1.16902 0.653446 1.36042L1.34655 0.639583ZM7.4 7.15385L7.05345 7.51426C7.23972 7.69337 7.53179 7.70103 7.72719 7.53193L7.4 7.15385ZM11.6667 3.46154L12.0268 3.11472C11.8424 2.92325 11.5405 2.90951 11.3395 3.08345L11.6667 3.46154ZM16.9906 9.49991C17.2667 9.50512 17.4947 9.28553 17.4999 9.00943L17.5848 4.51023C17.59 4.23414 17.3704 4.0061 17.0943 4.00089C16.8182 3.99568 16.5902 4.21528 16.585 4.49137L16.5095 8.49066L12.5102 8.4152C12.2341 8.40999 12.0061 8.62958 12.0009 8.90568C11.9957 9.18177 12.2153 9.40981 12.4914 9.41502L16.9906 9.49991ZM0.653446 1.36042L7.05345 7.51426L7.74655 6.79343L1.34655 0.639583L0.653446 1.36042ZM7.72719 7.53193L11.9939 3.83962L11.3395 3.08345L7.07281 6.77576L7.72719 7.53193ZM11.3065 3.80836L16.6398 9.34682L17.3602 8.65318L12.0268 3.11472L11.3065 3.80836Z" fill="#333333"/>
</svg>
