<svg width="14" height="15" viewBox="0 0 14 15" fill="none" xmlns="http://www.w3.org/2000/svg">
<g clip-path="url(#clip0)">
<path d="M6.97676 13.6192H1.74418C1.42324 13.6192 1.16279 13.3587 1.16279 13.0378V2.57266C1.16279 2.25173 1.42327 1.99128 1.74418 1.99128H6.97676C7.29827 1.99128 7.55814 1.73141 7.55814 1.4099C7.55814 1.08839 7.29827 0.828461 6.97676 0.828461H1.74418C0.782551 0.828461 0 1.61104 0 2.57266V13.0378C0 13.9994 0.782551 14.7819 1.74418 14.7819H6.97676C7.29827 14.7819 7.55814 14.5221 7.55814 14.2006C7.55814 13.8791 7.29827 13.6192 6.97676 13.6192Z" fill="#F5F7F9"/>
<path d="M13.8267 7.39129L10.2919 3.90291C10.0639 3.67733 9.69536 3.68025 9.46977 3.90874C9.24418 4.13722 9.24651 4.50524 9.47559 4.73083L12.0017 7.22384H5.23256C4.91105 7.22384 4.65117 7.48372 4.65117 7.80522C4.65117 8.12673 4.91105 8.38663 5.23256 8.38663H12.0017L9.47559 10.8796C9.24654 11.1052 9.24479 11.4733 9.46977 11.7017C9.58371 11.8169 9.73372 11.875 9.88373 11.875C10.0314 11.875 10.1791 11.8192 10.2919 11.7075L13.8267 8.21915C13.9372 8.10986 14 7.961 14 7.8052C14 7.64945 13.9378 7.50119 13.8267 7.39129Z" fill="#F5F7F9"/>
</g>
<defs>
<clipPath id="clip0">
<rect width="14" height="14" fill="white" transform="translate(0 0.805237)"/>
</clipPath>
</defs>
</svg>
