<svg width="14" height="15" viewBox="0 0 14 15" fill="none" xmlns="http://www.w3.org/2000/svg">
<path d="M13.9804 8.63456C13.9803 8.63449 13.9803 8.63446 13.9803 8.63439L11.337 1.9974C11.2809 1.85638 11.1211 1.78753 10.9801 1.84363C10.98 1.84367 10.9799 1.8437 10.9798 1.84377L0.256411 6.1137C0.212679 6.1326 0.174754 6.16276 0.146481 6.2011C0.0573007 6.24744 0.000961883 6.33916 0 6.43965V13.5851C0 13.7368 0.123052 13.8599 0.274824 13.8599H11.8174C11.9692 13.8599 12.0922 13.7368 12.0922 13.5851V9.68256L13.8269 8.99166C13.9679 8.93542 14.0366 8.77554 13.9804 8.63456ZM11.5426 13.3102H0.549647V6.71447H11.5426V13.3102ZM4.58543 6.1662L9.18708 4.33257C9.59777 4.76425 10.1668 5.0096 10.7626 5.01194L11.2216 6.1662H4.58543ZM12.0922 9.09224V6.43965C12.0922 6.28787 11.9692 6.16482 11.8174 6.16482H11.813L11.2307 4.70221C11.2242 4.69002 11.2167 4.6784 11.2081 4.66758C11.1787 4.53522 11.0561 4.44491 10.9209 4.45597C10.3666 4.5065 9.82423 4.27297 9.48004 3.83542C9.3944 3.72971 9.24387 3.70343 9.12745 3.77386C9.11439 3.7754 9.10144 3.77781 9.08869 3.781L3.47075 6.01807C3.40276 6.04472 3.34838 6.09759 3.31987 6.16482H1.61376L10.9281 2.45608L13.3682 8.58327L12.0922 9.09224Z" fill="#2C2C2C" fill-opacity="0.81"/>
<path d="M1.29552 11.4549C1.82909 11.6126 2.24661 12.0296 2.40498 12.563C2.43971 12.6794 2.54679 12.7592 2.66826 12.7592C2.68252 12.7583 2.69667 12.7562 2.71059 12.7529C2.72292 12.7564 2.73553 12.759 2.74824 12.7606H9.34401C9.35534 12.7591 9.36654 12.7568 9.37753 12.7537C9.51484 12.7871 9.65322 12.7029 9.68664 12.5656C9.68674 12.5651 9.68688 12.5646 9.68699 12.5641C9.84494 12.0302 10.2625 11.6126 10.7964 11.4546C10.9259 11.4151 11.0064 11.286 10.985 11.1523C10.9887 11.139 10.9913 11.1254 10.9929 11.1116V8.91306C10.9913 8.89928 10.9886 8.88568 10.9847 8.87238C11.0062 8.73865 10.9258 8.60955 10.7962 8.57008C10.2623 8.41216 9.84477 7.99439 9.68726 7.46034C9.64748 7.32997 9.51718 7.24931 9.38276 7.27181C9.37004 7.26827 9.35709 7.26569 9.34401 7.26411H2.74824C2.73439 7.26576 2.72069 7.26851 2.70729 7.27236C2.57362 7.25106 2.44466 7.33148 2.40498 7.46089C2.24692 7.9947 1.82936 8.41216 1.29552 8.57008C1.16604 8.60965 1.08559 8.73868 1.10699 8.87238C1.10342 8.88575 1.10084 8.89932 1.09929 8.91306V11.1116C1.10087 11.1246 1.10345 11.1373 1.10699 11.1498C1.08445 11.2844 1.16508 11.4149 1.29552 11.4549ZM1.64894 9.02463C2.20079 8.80299 2.63817 8.36561 2.85982 7.81376H9.23215C9.4539 8.36561 9.89139 8.80299 10.4433 9.02463V11.0001C9.89163 11.222 9.45431 11.6593 9.23243 12.2109H2.85982C2.63793 11.6593 2.20062 11.222 1.64894 11.0001V9.02463Z" fill="#2C2C2C" fill-opacity="0.81"/>
<path d="M6.04612 11.6613C6.95682 11.6613 7.69506 10.923 7.69506 10.0123C7.69506 9.10165 6.95682 8.3634 6.04612 8.3634C5.13542 8.3634 4.39718 9.10165 4.39718 10.0123C4.39807 10.9227 5.1358 11.6604 6.04612 11.6613ZM6.04612 8.91305C6.65324 8.91305 7.14542 9.40523 7.14542 10.0123C7.14542 10.6195 6.65324 11.1116 6.04612 11.1116C5.439 11.1116 4.94683 10.6195 4.94683 10.0123C4.94683 9.40523 5.439 8.91305 6.04612 8.91305Z" fill="#2C2C2C" fill-opacity="0.81"/>
<path d="M3.02306 10.4246C3.25072 10.4246 3.4353 10.24 3.4353 10.0123C3.4353 9.78469 3.25072 9.60011 3.02306 9.60011C2.7954 9.60011 2.61082 9.78469 2.61082 10.0123C2.61082 10.24 2.7954 10.4246 3.02306 10.4246ZM3.02306 9.87494C3.09895 9.87494 3.16047 9.93646 3.16047 10.0123C3.16047 10.0882 3.09895 10.1498 3.02306 10.1498C2.94717 10.1498 2.88565 10.0882 2.88565 10.0123C2.88565 9.93646 2.94717 9.87494 3.02306 9.87494Z" fill="#2C2C2C" fill-opacity="0.81"/>
<path d="M9.06918 10.4246C9.29684 10.4246 9.48142 10.24 9.48142 10.0123C9.48142 9.78469 9.29684 9.60011 9.06918 9.60011C8.84152 9.60011 8.65695 9.78469 8.65695 10.0123C8.65695 10.24 8.84152 10.4246 9.06918 10.4246ZM9.06918 9.87494C9.14507 9.87494 9.20659 9.93646 9.20659 10.0123C9.20659 10.0882 9.14507 10.1498 9.06918 10.1498C8.9933 10.1498 8.93177 10.0882 8.93177 10.0123C8.93177 9.93646 8.9933 9.87494 9.06918 9.87494Z" fill="#2C2C2C" fill-opacity="0.81"/>
</svg>
