<svg width="15" height="15" viewBox="0 0 15 15" fill="none" xmlns="http://www.w3.org/2000/svg">
<g clip-path="url(#clip0)">
<path d="M14.0163 3.13258C13.9621 3.09948 13.8947 3.09641 13.8377 3.12444L12.4303 3.81726L11.8886 2.71718L13.4436 1.95179C13.5355 1.90657 13.5733 1.79541 13.5281 1.7035C13.5217 1.69046 13.5137 1.67819 13.5044 1.66702C13.4553 1.60784 13.4013 1.54863 13.3437 1.49108C12.3279 0.475282 10.681 0.475253 9.66518 1.49105C9.17739 1.97885 8.90332 2.64043 8.90332 3.33027C8.90344 3.42249 8.90837 3.51465 8.91811 3.60636L7.20351 5.32094L3.40632 1.52885C3.37915 1.50174 3.34424 1.48369 3.30641 1.47724L0.607933 1.01764C0.506969 1.00042 0.411164 1.06834 0.39394 1.1693C0.390415 1.18991 0.390415 1.21097 0.39394 1.23161L0.853593 3.93012C0.860041 3.96797 0.878067 4.00288 0.905207 4.03005L4.69747 7.82721L2.98157 9.54307C1.55464 9.38998 0.273775 10.4227 0.120682 11.8496C0.109247 11.9562 0.104404 12.0635 0.106238 12.1707C0.107957 12.2732 0.192385 12.3548 0.29481 12.3531C0.322151 12.3526 0.349061 12.3461 0.373593 12.334L1.78095 11.6412L2.32265 12.7413L0.767675 13.5067C0.675767 13.5519 0.637938 13.6631 0.683161 13.755C0.689581 13.768 0.697519 13.7803 0.706805 13.7915C0.755896 13.8506 0.809946 13.9098 0.86755 13.9674C1.88332 14.9832 3.53026 14.9832 4.54606 13.9674C5.03386 13.4796 5.30792 12.818 5.30792 12.1282C5.30781 12.036 5.30288 11.9438 5.29313 11.8521L7.00619 10.1391L10.1253 13.2643C10.4574 13.5997 10.91 13.7882 11.3821 13.7877H11.3827C11.8545 13.7883 12.3069 13.6001 12.6392 13.2651C12.6396 13.2647 12.6401 13.2632 12.6405 13.2627C13.3337 12.568 13.3329 11.443 12.6387 10.7492L9.51547 7.63004L11.2298 5.9156C11.3211 5.92535 11.4129 5.93033 11.5047 5.93048C12.9399 5.93168 14.1043 4.76918 14.1056 3.33396C14.1056 3.3186 14.1054 3.30324 14.1052 3.28788C14.1041 3.22426 14.0705 3.16568 14.0163 3.13258ZM1.71381 3.48393L10.3433 12.1294L9.93044 12.5422L1.29869 3.89894L1.71381 3.48393ZM10.6056 11.8671L1.97597 3.22165L2.59806 2.59956L11.2435 11.2292L10.6056 11.8671ZM11.5058 10.9669L2.86032 2.33731L3.27532 1.9223L11.9186 10.5541L11.5058 10.9669ZM0.803584 1.42723L2.89041 1.78271L1.15906 3.514L0.803584 1.42723ZM4.28378 13.7051C3.42188 14.565 2.02991 14.576 1.15465 13.7296L2.65286 12.9921C2.74476 12.9469 2.78259 12.8357 2.73737 12.7438L2.03177 11.311C1.98652 11.219 1.87535 11.1812 1.78347 11.2265L0.492038 11.8622C0.549985 11.3656 0.77484 10.9033 1.12975 10.5511C2.00071 9.68012 3.41279 9.68009 4.28378 10.551C5.15471 11.422 5.15474 12.8341 4.28378 13.7051ZM5.20802 11.4125C4.96081 10.5488 4.2851 9.87402 3.42108 9.62796L4.95943 8.0896L6.74397 9.87649L5.20802 11.4125ZM12.7889 12.0057C12.7901 12.379 12.6418 12.7372 12.3771 13.0005C12.3766 13.0009 12.3763 13.0036 12.3758 13.0039C12.113 13.2684 11.7555 13.417 11.3826 13.4168H11.3821C11.0086 13.417 10.6505 13.2676 10.3877 13.0021L10.1926 12.8058L12.181 10.8167L12.3764 11.0114C12.6413 11.2744 12.7898 11.6325 12.7889 12.0057ZM9.25287 7.36755L7.46599 5.58302L9.0032 4.0459C9.25041 4.9096 9.92612 5.5844 10.7901 5.83049L9.25287 7.36755ZM13.0815 4.90725C12.2105 5.77738 10.7991 5.77669 9.92901 4.90574C9.05888 4.03478 9.05957 2.62338 9.93053 1.75325C10.7913 0.893352 12.1825 0.882433 13.0566 1.72875L11.5584 2.4663C11.4665 2.51152 11.4286 2.62269 11.4739 2.7146L12.1795 4.14746C12.2247 4.23937 12.3359 4.27717 12.4278 4.23195L13.7192 3.59619C13.6613 4.09284 13.4364 4.55513 13.0815 4.90734V4.90725Z" fill="#2C2C2C" fill-opacity="0.81"/>
</g>
<defs>
<clipPath id="clip0">
<rect width="14" height="14" fill="white" transform="translate(0.10498 0.729248)"/>
</clipPath>
</defs>
</svg>
