<svg width="15" height="15" viewBox="0 0 15 15" fill="none" xmlns="http://www.w3.org/2000/svg">
<g clip-path="url(#clip0)">
<path d="M6.97724 5.60787C6.80662 5.43724 6.52924 5.43637 6.35774 5.60699L4.91749 7.04812L4.35223 6.48199C4.18161 6.31137 3.90423 6.31137 3.73361 6.48199C3.56298 6.65262 3.56298 6.92999 3.73361 7.10062L4.60861 7.97562C4.69348 8.06137 4.80549 8.10424 4.91749 8.10424C5.02949 8.10424 5.14149 8.06137 5.22724 7.97649L6.97724 6.22649C7.14787 6.05587 7.14787 5.77849 6.97724 5.60787Z" fill="#2C2C2C" fill-opacity="0.81"/>
<path d="M6.97724 9.10787C6.80662 8.93724 6.52924 8.93637 6.35774 9.10699L4.91749 10.5481L4.35223 9.98287C4.18161 9.81224 3.90423 9.81224 3.73361 9.98287C3.56298 10.1535 3.56298 10.4309 3.73361 10.6015L4.60861 11.4765C4.69348 11.5614 4.80549 11.6042 4.91749 11.6042C5.02949 11.6042 5.14149 11.5614 5.22724 11.4765L6.97724 9.72649C7.14787 9.55587 7.14787 9.27849 6.97724 9.10787Z" fill="#2C2C2C" fill-opacity="0.81"/>
<path d="M10.1675 6.35425H8.41748C8.17598 6.35425 7.97998 6.55025 7.97998 6.79175C7.97998 7.03325 8.17598 7.22925 8.41748 7.22925H10.1675C10.409 7.22925 10.605 7.03325 10.605 6.79175C10.605 6.55025 10.409 6.35425 10.1675 6.35425Z" fill="#2C2C2C" fill-opacity="0.81"/>
<path d="M10.1675 9.85425H8.41748C8.17598 9.85425 7.97998 10.0502 7.97998 10.2917C7.97998 10.5332 8.17598 10.7292 8.41748 10.7292H10.1675C10.409 10.7292 10.605 10.5332 10.605 10.2917C10.605 10.0502 10.409 9.85425 10.1675 9.85425Z" fill="#2C2C2C" fill-opacity="0.81"/>
<path d="M11.48 1.97925H9.72998V1.54175C9.72998 1.30025 9.53398 1.10425 9.29248 1.10425H8.34311C8.16198 0.594998 7.67548 0.229248 7.10498 0.229248C6.53448 0.229248 6.04798 0.594998 5.86686 1.10425H4.91748C4.67598 1.10425 4.47998 1.30025 4.47998 1.54175V1.97925H2.72998C2.24786 1.97925 1.85498 2.37212 1.85498 2.85425V13.3542C1.85498 13.8364 2.24786 14.2292 2.72998 14.2292H11.48C11.9621 14.2292 12.355 13.8364 12.355 13.3542V2.85425C12.355 2.37212 11.9621 1.97925 11.48 1.97925ZM5.35498 1.97925H6.22998C6.47148 1.97925 6.66748 1.78325 6.66748 1.54175C6.66748 1.30025 6.86348 1.10425 7.10498 1.10425C7.34648 1.10425 7.54248 1.30025 7.54248 1.54175C7.54248 1.78325 7.73848 1.97925 7.97998 1.97925H8.85498V2.85425H5.35498V1.97925ZM11.48 13.3542H2.72998V2.85425H4.47998V3.29175C4.47998 3.53325 4.67598 3.72925 4.91748 3.72925H9.29248C9.53398 3.72925 9.72998 3.53325 9.72998 3.29175V2.85425H11.48V13.3542Z" fill="#2C2C2C" fill-opacity="0.81"/>
</g>
<defs>
<clipPath id="clip0">
<rect width="14" height="14" fill="white" transform="translate(0.10498 0.229248)"/>
</clipPath>
</defs>
</svg>
