<svg width="14" height="15" viewBox="0 0 14 15" fill="none" xmlns="http://www.w3.org/2000/svg">
<g clip-path="url(#clip0)">
<path d="M7 9.60803C6.839 9.60803 6.70833 9.47737 6.70833 9.31637V8.87828C6.70833 8.71728 6.839 8.58662 7 8.58662C7.161 8.58662 7.29167 8.71728 7.29167 8.87828V9.31637C7.29167 9.47737 7.161 9.60803 7 9.60803Z" fill="#2C2C2C" fill-opacity="0.81"/>
<path d="M7.14584 9.0247H6.125C5.964 9.0247 5.83333 8.89404 5.83333 8.73304C5.83333 8.57204 5.964 8.44137 6.125 8.44137H7.14584C7.38734 8.44137 7.58334 8.24479 7.58334 8.00387C7.58334 7.76295 7.38734 7.56637 7.14584 7.56637H6.85417C6.29125 7.56637 5.83333 7.10845 5.83333 6.54554C5.83333 5.98262 6.29125 5.5247 6.85417 5.5247H7.87501C8.03601 5.5247 8.16667 5.65537 8.16667 5.81637C8.16667 5.97737 8.03601 6.10804 7.87501 6.10804H6.85417C6.61267 6.10804 6.41667 6.30462 6.41667 6.54554C6.41667 6.78645 6.61267 6.98304 6.85417 6.98304H7.14584C7.70876 6.98304 8.16667 7.44095 8.16667 8.00387C8.16667 8.56679 7.70876 9.0247 7.14584 9.0247Z" fill="#2C2C2C" fill-opacity="0.81"/>
<path d="M7 5.96278C6.839 5.96278 6.70833 5.83211 6.70833 5.67111V5.23303C6.70833 5.07203 6.839 4.94136 7 4.94136C7.161 4.94136 7.29167 5.07203 7.29167 5.23303V5.67111C7.29167 5.83211 7.161 5.96278 7 5.96278Z" fill="#2C2C2C" fill-opacity="0.81"/>
<path d="M7 10.7747C5.06975 10.7747 3.5 9.20495 3.5 7.2747C3.5 5.34445 5.06975 3.7747 7 3.7747C8.93025 3.7747 10.5 5.34445 10.5 7.2747C10.5 9.20495 8.93025 10.7747 7 10.7747ZM7 4.35804C5.39175 4.35804 4.08333 5.66645 4.08333 7.2747C4.08333 8.88295 5.39175 10.1914 7 10.1914C8.60825 10.1914 9.91667 8.88295 9.91667 7.2747C9.91667 5.66645 8.60825 4.35804 7 4.35804Z" fill="#2C2C2C" fill-opacity="0.81"/>
<path d="M7 13.6914C6.839 13.6914 6.70833 13.5607 6.70833 13.3997C6.70833 13.2387 6.839 13.108 7 13.108C10.2165 13.108 12.8333 10.4912 12.8333 7.2747C12.8333 7.1137 12.964 6.98303 13.125 6.98303C13.286 6.98303 13.4167 7.1137 13.4167 7.2747C13.4167 10.8126 10.5379 13.6914 7 13.6914Z" fill="#2C2C2C" fill-opacity="0.81"/>
<path d="M12.7808 5.55387C12.6601 5.55387 12.5469 5.47803 12.5049 5.35787C11.6941 3.0152 9.48149 1.44137 6.99999 1.44137C5.67233 1.44137 4.42866 1.87712 3.40258 2.70078C3.27716 2.80112 3.09341 2.78187 2.99249 2.65645C2.89158 2.53045 2.91199 2.34728 3.03741 2.24637C4.16791 1.33812 5.53816 0.858032 6.99999 0.858032C9.72999 0.858032 12.1642 2.58995 13.0567 5.16653C13.1092 5.31937 13.0287 5.48503 12.8765 5.53812C12.845 5.54862 12.8123 5.55387 12.7808 5.55387Z" fill="#2C2C2C" fill-opacity="0.81"/>
<path d="M4.95833 13.3356C4.92625 13.3356 4.89358 13.3303 4.8615 13.3192C2.303 12.4221 0.583331 9.99305 0.583331 7.27472C0.583331 5.97972 0.968331 4.73663 1.69633 3.67963C1.78733 3.54605 1.96875 3.51397 2.10175 3.60438C2.23475 3.69597 2.268 3.87738 2.17641 4.0098C1.51608 4.96997 1.16666 6.09872 1.16666 7.27472C1.16666 9.74572 2.72941 11.9536 5.05516 12.7685C5.20683 12.8216 5.28675 12.9879 5.23366 13.1401C5.19166 13.2603 5.07908 13.3356 4.95833 13.3356Z" fill="#2C2C2C" fill-opacity="0.81"/>
<path d="M7.875 14.858C7.80033 14.858 7.72566 14.8294 7.6685 14.7729L6.50183 13.6062C6.38808 13.4924 6.38808 13.3075 6.50183 13.1938L7.6685 12.0271C7.78225 11.9134 7.96716 11.9134 8.08091 12.0271C8.19466 12.1409 8.19466 12.3258 8.08091 12.4395L7.12075 13.3997L8.08091 14.3599C8.19466 14.4736 8.19466 14.6585 8.08091 14.7723C8.02433 14.8294 7.94966 14.858 7.875 14.858Z" fill="#2C2C2C" fill-opacity="0.81"/>
<path d="M2.4351 5.52468C2.30619 5.52468 2.18835 5.43893 2.15335 5.30885L1.77594 3.9001L0.367188 4.27752C0.212022 4.3166 0.0516049 4.22677 0.0101883 4.07102C-0.0312284 3.91527 0.0609382 3.75602 0.216688 3.71402L1.90719 3.26135C2.06294 3.22227 2.22277 3.3121 2.26419 3.46727L2.71685 5.15718C2.75885 5.31352 2.6661 5.47277 2.51094 5.51477C2.48527 5.52118 2.46019 5.52468 2.4351 5.52468Z" fill="#2C2C2C" fill-opacity="0.81"/>
<path d="M12.8333 5.87354C12.7837 5.87354 12.7336 5.86129 12.6875 5.83445L11.172 4.95946C11.0326 4.87896 10.9848 4.70104 11.0653 4.56104C11.1457 4.42162 11.3237 4.37321 11.4637 4.45429L12.7266 5.18345L13.4557 3.92054C13.5362 3.78113 13.7147 3.73271 13.8542 3.81379C13.9936 3.89429 14.0414 4.07221 13.9609 4.21221L13.0859 5.7277C13.0317 5.82104 12.9337 5.87354 12.8333 5.87354Z" fill="#2C2C2C" fill-opacity="0.81"/>
</g>
<defs>
<clipPath id="clip0">
<rect width="14" height="14" fill="white" transform="translate(0 0.858032)"/>
</clipPath>
</defs>
</svg>
