<svg width="15" height="15" viewBox="0 0 15 15" fill="none" xmlns="http://www.w3.org/2000/svg">
<g clip-path="url(#clip0)">
<path d="M11.501 7.11869C12.9359 5.82878 13.0534 3.61996 11.7635 2.18512C10.5804 0.86914 8.60021 0.645576 7.15354 1.66469C5.5765 0.55171 3.39582 0.927909 2.28284 2.50492C1.26159 3.95198 1.48424 5.93422 2.80107 7.11866C1.16488 7.98116 0.143681 9.68157 0.151094 11.5311V13.0311C0.151094 13.3073 0.37495 13.5311 0.651101 13.5311H13.651C13.9272 13.5311 14.151 13.3073 14.151 13.0311V11.5311C14.1584 9.68157 13.1372 7.98116 11.501 7.11869ZM9.15102 2.03119C10.5298 2.02967 11.6487 3.14614 11.6503 4.5249C11.6514 5.50822 11.0752 6.40057 10.1785 6.80416C10.14 6.82165 10.1015 6.83765 10.0625 6.85417C9.93913 6.90394 9.81187 6.94355 9.68202 6.97267C9.65703 6.97818 9.63201 6.98117 9.60653 6.98618C9.46145 7.01398 9.31423 7.02887 9.16652 7.03068C9.10002 7.03068 9.03301 7.02567 8.96651 7.0197C8.94152 7.0197 8.9165 7.0197 8.89151 7.01469C8.60733 6.98123 8.33089 6.89976 8.07401 6.77369C8.06452 6.76918 8.05351 6.76968 8.04401 6.76569C7.994 6.7417 7.94402 6.72069 7.89952 6.69368C7.90354 6.68867 7.90603 6.68319 7.91001 6.67818C8.13929 6.38358 8.32005 6.05428 8.4455 5.70269L8.46099 5.66068C8.51804 5.49275 8.56233 5.32078 8.5935 5.14617C8.59801 5.12068 8.6015 5.09616 8.60552 5.06868C8.63443 4.89094 8.64964 4.71126 8.65101 4.53117C8.64958 4.35144 8.63437 4.17208 8.60552 3.99466C8.6015 3.96868 8.59801 3.94465 8.5935 3.91717C8.56233 3.74259 8.51804 3.57059 8.46099 3.40266L8.4455 3.36065C8.32005 3.00906 8.13926 2.67977 7.91001 2.38516C7.906 2.38015 7.90351 2.37467 7.89952 2.36966C8.27938 2.14806 8.71125 2.03122 9.15102 2.03119ZM2.65107 4.5312C2.64753 3.15408 3.76101 2.03483 5.13813 2.03128C5.78365 2.02961 6.40469 2.27837 6.87056 2.7252C6.89957 2.75321 6.92807 2.78119 6.95605 2.81019C7.04192 2.90017 7.12111 2.99626 7.19306 3.09768C7.21506 3.12868 7.23507 3.1617 7.25555 3.19369C7.32542 3.30124 7.38677 3.41409 7.43904 3.53119C7.45155 3.55969 7.46104 3.5887 7.47203 3.61717C7.52473 3.74669 7.56621 3.88052 7.59604 4.01716C7.59955 4.03216 7.60055 4.04716 7.60354 4.06266C7.66688 4.37312 7.66688 4.69318 7.60354 5.00364C7.60055 5.01914 7.59952 5.03414 7.59604 5.04914C7.56624 5.18578 7.52476 5.31961 7.47203 5.44913C7.46104 5.47763 7.45152 5.50664 7.43904 5.53511C7.38671 5.65204 7.32537 5.76471 7.25555 5.87211C7.23504 5.90411 7.21506 5.93712 7.19306 5.96812C7.12114 6.06957 7.04192 6.16564 6.95605 6.25561C6.92804 6.28461 6.89954 6.31262 6.87056 6.3406C6.66812 6.53352 6.43472 6.69105 6.18007 6.80659C6.13958 6.82508 6.09856 6.8421 6.05708 6.8566C5.93655 6.90444 5.81254 6.94288 5.6861 6.97159C5.6546 6.97859 5.62208 6.98258 5.59009 6.98808C5.45433 7.01337 5.31666 7.02723 5.17859 7.0296H5.1236C4.98552 7.02726 4.84786 7.01337 4.7121 6.98808C4.6801 6.98258 4.64759 6.97859 4.61609 6.97159C4.48965 6.94288 4.3656 6.90444 4.24511 6.8566C4.20359 6.84011 4.16261 6.82312 4.12212 6.80659C3.22757 6.40271 2.65221 5.51267 2.65107 4.5312ZM9.15102 12.5311H1.15108V11.5312C1.14375 9.83684 2.21127 8.3241 3.81005 7.76319C4.66833 8.12052 5.63374 8.12052 6.49205 7.76319C6.65898 7.82418 6.82167 7.89617 6.97905 7.9787C7.08305 8.03219 7.17906 8.09319 7.27905 8.15468C7.34406 8.19517 7.41003 8.23469 7.47255 8.27919C7.56906 8.34769 7.66005 8.42219 7.74955 8.49868C7.80706 8.54869 7.86404 8.59867 7.91804 8.64868C8.00054 8.72667 8.07803 8.80917 8.15253 8.89369C8.20603 8.95469 8.25803 9.01668 8.30754 9.08069C8.37305 9.16469 8.43554 9.2507 8.49354 9.33918C8.54355 9.41418 8.58805 9.49217 8.63203 9.57018C8.68204 9.65617 8.72803 9.74218 8.77002 9.83169C8.81203 9.92119 8.84903 10.0192 8.88501 10.1147C8.9165 10.1977 8.95002 10.2802 8.976 10.3647C9.01101 10.4807 9.0355 10.6007 9.06 10.7207C9.075 10.7917 9.09451 10.8612 9.10549 10.9332C9.13511 11.1311 9.15032 11.331 9.15099 11.5312V12.5311H9.15102ZM13.151 12.5311H10.151V11.5312C10.151 11.3747 10.142 11.2196 10.128 11.0662C10.124 11.0212 10.1171 10.9767 10.112 10.9317C10.0985 10.8212 10.083 10.7117 10.062 10.6032C10.053 10.5568 10.0435 10.5103 10.0335 10.4636C10.0095 10.3523 9.9817 10.242 9.95003 10.1326C9.93954 10.0966 9.93002 10.0601 9.91903 10.0247C9.77903 9.5771 9.57615 9.15171 9.31655 8.76118L9.29704 8.73268C9.21105 8.605 9.1192 8.48152 9.02153 8.36219L9.01804 8.35768C8.91805 8.23369 8.80954 8.11317 8.69554 7.99917C8.70205 7.99917 8.70905 7.99917 8.71605 7.99917C8.85715 8.01772 8.99923 8.02774 9.14156 8.02917H9.16907C9.30079 8.02803 9.4323 8.01951 9.56308 8.00369C9.60406 7.99868 9.64458 7.99118 9.68557 7.98467C9.79192 7.96835 9.89692 7.94717 10.0006 7.92119C10.0301 7.91369 10.0601 7.90668 10.0901 7.89819C10.2261 7.86119 10.3597 7.81575 10.4901 7.76219C12.09 8.32255 13.1585 9.83596 13.151 11.5312V12.5311H13.151Z" fill="#2C2C2C" fill-opacity="0.81"/>
</g>
<defs>
<clipPath id="clip0">
<rect width="14" height="14" fill="white" transform="translate(0.150421 0.278015)"/>
</clipPath>
</defs>
</svg>
