<svg width="14" height="15" viewBox="0 0 14 15" fill="none" xmlns="http://www.w3.org/2000/svg">
<g clip-path="url(#clip0)">
<path d="M11.9498 9.11487C11.1873 8.35247 10.2799 7.78807 9.28974 7.44641C10.3502 6.71603 11.0469 5.49368 11.0469 4.11151C11.0469 1.88007 9.23144 0.0646362 7 0.0646362C4.76856 0.0646362 2.95312 1.88007 2.95312 4.11151C2.95312 5.49368 3.64982 6.71603 4.71029 7.44641C3.72017 7.78807 2.81269 8.35247 2.05026 9.11487C0.728137 10.437 0 12.1949 0 14.0646H1.09375C1.09375 10.8079 3.74328 8.15839 7 8.15839C10.2567 8.15839 12.9062 10.8079 12.9062 14.0646H14C14 12.1949 13.2719 10.437 11.9498 9.11487ZM7 7.06464C5.37165 7.06464 4.04688 5.73989 4.04688 4.11151C4.04688 2.48314 5.37165 1.15839 7 1.15839C8.62835 1.15839 9.95312 2.48314 9.95312 4.11151C9.95312 5.73989 8.62835 7.06464 7 7.06464Z" fill="black"/>
</g>
<defs>
<clipPath id="clip0">
<rect width="14" height="14" fill="white" transform="translate(0 0.0646362)"/>
</clipPath>
</defs>
</svg>
