<svg width="14" height="15" viewBox="0 0 14 15" fill="none" xmlns="http://www.w3.org/2000/svg">
<g clip-path="url(#clip0)">
<path d="M13.3643 7.88509V5.91741C13.3643 5.2502 12.8468 4.70758 12.1929 4.65496L10.3656 1.46325C10.1962 1.16806 9.9228 0.957079 9.59561 0.869471C9.26996 0.78246 8.92943 0.828158 8.63797 0.997796L2.37378 4.6447H1.2736C0.571691 4.6447 0.000882149 5.21548 0.000882149 5.91741V13.5537C0.000882149 14.2556 0.571661 14.8264 1.2736 14.8264H12.0916C12.7935 14.8264 13.3643 14.2556 13.3643 13.5537V11.586C13.7339 11.4542 14.0007 11.1043 14.0007 10.6901V8.781C14.0007 8.36674 13.7339 8.01687 13.3643 7.88509ZM11.4535 4.6447H8.68024L10.7602 3.43376L11.4535 4.6447ZM10.444 2.88153L7.41552 4.6447H6.15933L10.1299 2.33294L10.444 2.88153ZM8.95831 1.54775C9.10217 1.46355 9.27026 1.44117 9.43092 1.48407C9.59343 1.52756 9.72891 1.63259 9.81312 1.77956L9.81378 1.78072L4.89467 4.6447H3.63854L8.95831 1.54775ZM12.728 13.5537C12.728 13.9044 12.4424 14.19 12.0916 14.19H1.2736C0.922809 14.19 0.637255 13.9044 0.637255 13.5537V5.91741C0.637255 5.56662 0.922809 5.28107 1.2736 5.28107H12.0916C12.4424 5.28107 12.728 5.56662 12.728 5.91741V7.82647H10.8189C9.76617 7.82647 8.90984 8.68281 8.90984 9.73553C8.90984 10.7883 9.76617 11.6446 10.8189 11.6446H12.728V13.5537ZM13.3643 10.6901C13.3643 10.8656 13.2217 11.0082 13.0461 11.0082H10.8189C10.117 11.0082 9.54618 10.4375 9.54618 9.73553C9.54618 9.03362 10.117 8.46282 10.8189 8.46282H13.0461C13.2217 8.46282 13.3643 8.60543 13.3643 8.781V10.6901Z" fill="#1F3131" fill-opacity="0.87"/>
<path d="M10.8181 9.09917C10.4673 9.09917 10.1818 9.38472 10.1818 9.73551C10.1818 10.0863 10.4673 10.3719 10.8181 10.3719C11.1689 10.3719 11.4544 10.0863 11.4544 9.73551C11.4545 9.38472 11.1689 9.09917 10.8181 9.09917Z" fill="#1F3131" fill-opacity="0.87"/>
</g>
<defs>
<clipPath id="clip0">
<rect width="14" height="14" fill="white" transform="translate(0 0.826355)"/>
</clipPath>
</defs>
</svg>
